<mxfile host="app.diagrams.net" agent="Mozilla/5.0 (Windows NT 10.0; Win64; x64) AppleWebKit/537.36 (KHTML, like Gecko) Chrome/123.0.0.0 Safari/537.36 OPR/109.0.0.0" version="24.7.6">
  <diagram name="Page-1" id="c37626ed-c26b-45fb-9056-f9ebc6bb27b6">
    <mxGraphModel dx="2493" dy="806" grid="1" gridSize="10" guides="1" tooltips="1" connect="1" arrows="1" fold="1" page="1" pageScale="1" pageWidth="1100" pageHeight="850" background="none" math="0" shadow="0">
      <root>
        <mxCell id="0" />
        <mxCell id="1" parent="0" />
        <mxCell id="vxOnuUyer-YmxFZOIa29-16" style="edgeStyle=orthogonalEdgeStyle;rounded=0;orthogonalLoop=1;jettySize=auto;html=1;" edge="1" parent="1" source="vxOnuUyer-YmxFZOIa29-3" target="vxOnuUyer-YmxFZOIa29-11">
          <mxGeometry relative="1" as="geometry" />
        </mxCell>
        <mxCell id="vxOnuUyer-YmxFZOIa29-24" style="edgeStyle=orthogonalEdgeStyle;rounded=0;orthogonalLoop=1;jettySize=auto;html=1;" edge="1" parent="1" source="vxOnuUyer-YmxFZOIa29-3" target="vxOnuUyer-YmxFZOIa29-22">
          <mxGeometry relative="1" as="geometry" />
        </mxCell>
        <mxCell id="vxOnuUyer-YmxFZOIa29-3" value="Client with Browser" style="image;aspect=fixed;perimeter=ellipsePerimeter;html=1;align=center;shadow=0;dashed=0;spacingTop=3;image=img/lib/active_directory/workstation_client.svg;" vertex="1" parent="1">
          <mxGeometry x="260" y="280" width="42.5" height="50" as="geometry" />
        </mxCell>
        <mxCell id="vxOnuUyer-YmxFZOIa29-26" style="edgeStyle=orthogonalEdgeStyle;rounded=0;orthogonalLoop=1;jettySize=auto;html=1;" edge="1" parent="1" source="vxOnuUyer-YmxFZOIa29-5" target="vxOnuUyer-YmxFZOIa29-23">
          <mxGeometry relative="1" as="geometry" />
        </mxCell>
        <mxCell id="vxOnuUyer-YmxFZOIa29-5" value="Web Server" style="image;aspect=fixed;perimeter=ellipsePerimeter;html=1;align=center;shadow=0;dashed=0;spacingTop=3;image=img/lib/active_directory/generic_server.svg;" vertex="1" parent="1">
          <mxGeometry x="440" y="415" width="28.000000000000004" height="50" as="geometry" />
        </mxCell>
        <mxCell id="vxOnuUyer-YmxFZOIa29-19" style="edgeStyle=orthogonalEdgeStyle;rounded=0;orthogonalLoop=1;jettySize=auto;html=1;" edge="1" parent="1" source="vxOnuUyer-YmxFZOIa29-6" target="vxOnuUyer-YmxFZOIa29-18">
          <mxGeometry relative="1" as="geometry" />
        </mxCell>
        <mxCell id="vxOnuUyer-YmxFZOIa29-6" value="DNS Server" style="image;aspect=fixed;perimeter=ellipsePerimeter;html=1;align=center;shadow=0;dashed=0;spacingTop=3;image=img/lib/active_directory/generic_server.svg;" vertex="1" parent="1">
          <mxGeometry x="100" y="138" width="28.000000000000004" height="50" as="geometry" />
        </mxCell>
        <mxCell id="vxOnuUyer-YmxFZOIa29-14" style="edgeStyle=orthogonalEdgeStyle;rounded=0;orthogonalLoop=1;jettySize=auto;html=1;entryX=0;entryY=0.5;entryDx=0;entryDy=0;" edge="1" parent="1" source="vxOnuUyer-YmxFZOIa29-11" target="vxOnuUyer-YmxFZOIa29-6">
          <mxGeometry relative="1" as="geometry" />
        </mxCell>
        <mxCell id="vxOnuUyer-YmxFZOIa29-11" value="Request to&amp;nbsp;http://www.plannedparenthood.org/" style="text;html=1;align=center;verticalAlign=middle;resizable=0;points=[];autosize=1;strokeColor=none;fillColor=none;" vertex="1" parent="1">
          <mxGeometry x="-70" y="240" width="270" height="30" as="geometry" />
        </mxCell>
        <mxCell id="vxOnuUyer-YmxFZOIa29-20" style="edgeStyle=orthogonalEdgeStyle;rounded=0;orthogonalLoop=1;jettySize=auto;html=1;" edge="1" parent="1" source="vxOnuUyer-YmxFZOIa29-18" target="vxOnuUyer-YmxFZOIa29-3">
          <mxGeometry relative="1" as="geometry" />
        </mxCell>
        <mxCell id="vxOnuUyer-YmxFZOIa29-18" value="Provides IP 1xx.x.x&lt;span style=&quot;background-color: initial;&quot;&gt;.x&lt;/span&gt;" style="text;html=1;align=center;verticalAlign=middle;resizable=0;points=[];autosize=1;strokeColor=none;fillColor=none;" vertex="1" parent="1">
          <mxGeometry x="216.25" y="148" width="130" height="30" as="geometry" />
        </mxCell>
        <mxCell id="vxOnuUyer-YmxFZOIa29-25" style="edgeStyle=orthogonalEdgeStyle;rounded=0;orthogonalLoop=1;jettySize=auto;html=1;" edge="1" parent="1" source="vxOnuUyer-YmxFZOIa29-22" target="vxOnuUyer-YmxFZOIa29-5">
          <mxGeometry relative="1" as="geometry" />
        </mxCell>
        <mxCell id="vxOnuUyer-YmxFZOIa29-22" value="HTTP Request" style="text;html=1;align=center;verticalAlign=middle;resizable=0;points=[];autosize=1;strokeColor=none;fillColor=none;" vertex="1" parent="1">
          <mxGeometry x="404" y="290" width="100" height="30" as="geometry" />
        </mxCell>
        <mxCell id="vxOnuUyer-YmxFZOIa29-27" style="edgeStyle=orthogonalEdgeStyle;rounded=0;orthogonalLoop=1;jettySize=auto;html=1;entryX=0.5;entryY=1;entryDx=0;entryDy=0;" edge="1" parent="1" source="vxOnuUyer-YmxFZOIa29-23" target="vxOnuUyer-YmxFZOIa29-3">
          <mxGeometry relative="1" as="geometry" />
        </mxCell>
        <mxCell id="vxOnuUyer-YmxFZOIa29-23" value="HTTP Response" style="text;html=1;align=center;verticalAlign=middle;resizable=0;points=[];autosize=1;strokeColor=none;fillColor=none;" vertex="1" parent="1">
          <mxGeometry x="226.25" y="425" width="110" height="30" as="geometry" />
        </mxCell>
      </root>
    </mxGraphModel>
  </diagram>
</mxfile>
